<svg width="151" height="52" viewBox="0 0 151 52" fill="none" xmlns="http://www.w3.org/2000/svg">
<path d="M17.692 1.61677C17.692 1.61677 10.1302 14.9398 16.0459 22.9645C21.55 34.3328 12.085 47.2958 12.085 47.2958C16.1487 49.9707 21.0356 51.5653 26.2825 51.5653H39.1426C39.1426 51.5653 35.8504 36.3904 39.1426 29.446C45.7784 15.4542 31.2722 0.125 31.2722 0.125H26.2825C23.2475 0.17644 20.3668 0.690843 17.692 1.61677Z" fill="#8045A6"/>
<path d="M39.0914 51.6171H63.937C63.937 51.6171 53.2375 40.8146 61.365 29.6521C69.4926 18.4895 51.9 0.176758 51.9 0.176758H31.2724C31.2724 0.176758 42.0749 15.3002 29.5235 25.2796C19.2868 33.4072 39.0914 51.6171 39.0914 51.6171Z" fill="#1C7CC4"/>
<path d="M70.6757 51.6171C70.6757 51.6171 81.6325 47.6562 85.2334 33.0471C87.7025 22.9648 72.6305 0.176758 72.6305 0.176758H51.9C51.9 0.176758 42.6922 11.9566 51.3856 21.8846C60.3362 32.0698 57.97 51.6171 57.97 51.6171H70.6757Z" fill="#24A8ED"/>
<path d="M70.7273 51.6171H91.5092C91.5092 51.6171 76.4886 34.4875 85.2335 26.8228C100.768 13.1912 80.3467 0.176758 80.3467 0.176758H72.682C72.682 0.176758 62.0853 19.827 69.1841 28.2632C77.7232 38.4484 70.7273 51.6171 70.7273 51.6171Z" fill="#7ABE36"/>
<path d="M105.141 51.6171C105.141 51.6171 123.711 35.3619 113.68 28.6233C102.517 21.113 113.474 0.176758 113.474 0.176758H80.3467C80.3467 0.176758 91.252 6.76112 83.9989 23.7879C76.7459 40.8146 91.5092 51.6171 91.5092 51.6171H105.141Z" fill="#F5C834"/>
<path d="M105.141 51.6168H124.842C125.974 51.6168 127.054 51.5139 128.135 51.411C128.135 51.411 128.906 32.481 137.96 25.3822C147.013 18.3349 132.353 1.25669 132.353 1.25669C129.986 0.536522 127.466 0.125 124.842 0.125H113.423C113.423 0.125 89.4514 15.66 105.089 27.2341C117.435 36.3904 105.141 51.6168 105.141 51.6168Z" fill="#FD632D"/>
<path d="M132.353 1.25684C132.353 1.25684 136.931 16.226 124.534 23.4276C112.137 30.6293 128.135 51.3597 128.135 51.3597C140.789 49.7651 150.563 38.9626 150.563 25.8453C150.563 14.2712 142.898 4.49758 132.353 1.25684Z" fill="#DC4418"/>
<path d="M17.6921 1.61621C7.71271 5.16559 0.5625 14.6821 0.5625 25.8446C0.5625 34.7952 5.1407 42.6656 12.0851 47.2952C12.0851 47.2952 28.3917 33.4578 17.4349 23.4783C11.9823 17.9742 17.6921 1.61621 17.6921 1.61621Z" fill="#70407A"/>
<path d="M26.2826 43.0265C16.6118 43.0265 8.84429 35.0533 9.15293 25.2796C9.46157 15.9689 17.4348 8.71582 26.7455 8.71582H124.431C133.741 8.71582 141.715 15.9689 142.023 25.2796C142.332 35.0018 134.564 43.0265 124.894 43.0265H26.2826Z" fill="black" stroke="white" stroke-width="3" stroke-miterlimit="10"/>
<path d="M23.7106 32.224C23.4534 32.3784 23.1962 32.4812 22.939 32.4812C22.5789 32.4812 22.2703 32.3269 22.0131 32.0697C21.7559 31.8125 21.6016 31.5553 21.6016 31.1952C21.6016 31.0409 21.6016 30.8352 21.7044 30.578C21.8073 30.3208 21.9616 30.0636 22.2188 29.7035L25.3053 25.4854L22.9904 22.0389C22.7332 21.6788 22.5789 21.3701 22.476 21.1644C22.3732 20.9072 22.3217 20.7529 22.3217 20.5471C22.3217 20.187 22.476 19.8784 22.7332 19.6212C22.9904 19.364 23.3505 19.2096 23.762 19.2096C24.2764 19.2096 24.7909 19.5697 25.3053 20.3413L27.1057 23.0162L29.009 20.2899C29.5234 19.5183 30.0378 19.1582 30.6551 19.1582C31.0151 19.1582 31.2723 19.3125 31.5295 19.5697C31.7867 19.8269 31.9411 20.187 31.9411 20.4442C31.9411 20.8043 31.6839 21.3187 31.2723 21.8845L28.8546 25.331L32.0439 29.5492C32.3011 29.9092 32.4555 30.2179 32.5583 30.4236C32.6612 30.578 32.7127 30.8352 32.7127 31.0409C32.7127 31.401 32.5583 31.6582 32.3011 31.9154C32.0439 32.1726 31.6839 32.2755 31.3752 32.2755C30.7579 32.2755 30.2435 31.9154 29.7291 31.2467L27.1571 27.543L24.5851 31.2467C24.225 31.8125 23.9678 32.0697 23.7106 32.224Z" fill="white"/>
<path d="M43.5154 21.0101L46.7561 30.2693C46.859 30.4237 46.859 30.6294 46.9104 30.7837C46.9104 30.9381 47.0133 31.0409 47.0133 31.1953C47.0133 31.6068 46.859 31.864 46.6018 32.1212C46.3446 32.3784 45.9845 32.4813 45.573 32.4813C44.8014 32.4813 44.287 32.0698 44.0298 31.0924L43.5154 29.6521H38.9886L38.4742 31.2981C38.217 32.1726 37.7026 32.5842 37.0854 32.5842C36.6738 32.5842 36.3138 32.4813 36.0566 32.2241C35.7993 31.9669 35.645 31.6068 35.645 31.1953C35.645 30.8352 35.7479 30.578 35.7993 30.3208L39.143 21.2158C39.5545 19.9298 40.3261 19.3125 41.3549 19.3125C42.3837 19.2611 43.0524 19.8784 43.5154 21.0101ZM42.7438 26.9772L41.3549 22.4504H41.252L39.8117 26.9772H42.7438Z" fill="white"/>
<path d="M57.1472 28.2628L58.8447 21.0612C58.9476 20.5468 59.2048 20.1352 59.5134 19.7751C59.8735 19.4151 60.3879 19.2607 60.9023 19.2607C61.5196 19.2607 62.0855 19.4151 62.4455 19.878C62.8571 20.2895 63.1143 20.7525 63.2171 21.2669L64.606 30.0118C64.606 30.269 64.7089 30.4233 64.7089 30.6291C64.7089 30.8348 64.7089 30.8863 64.7089 30.9891C64.7089 31.5035 64.606 31.8636 64.3488 32.1208C64.0916 32.378 63.8344 32.4809 63.4229 32.4809C63.0114 32.4809 62.6513 32.3266 62.3941 32.0694C62.1369 31.8122 61.9826 31.2978 61.8797 30.6291L60.748 23.5817H60.6451L58.999 30.1147C58.7418 30.9891 58.4846 31.5035 58.1246 31.8122C57.7645 32.0694 57.4558 32.2237 56.9414 32.2237C56.5299 32.2237 56.0669 32.0694 55.7583 31.8122C55.3982 31.555 55.141 30.9377 54.8838 30.1147L53.1863 23.5817L52.2604 30.6805C52.1575 31.3492 52.0032 31.8636 51.746 32.1208C51.4888 32.378 51.1287 32.5323 50.7172 32.5323C50.3056 32.5323 50.0484 32.4295 49.7912 32.1723C49.534 31.9151 49.4312 31.555 49.4312 31.0406C49.4312 30.8863 49.534 30.5262 49.5855 30.1147L50.9744 21.3698C51.0772 20.8554 51.3344 20.341 51.6431 19.9809C52.0546 19.5694 52.569 19.3636 53.1863 19.3636C53.7007 19.3636 54.2151 19.5179 54.5752 19.878C54.9353 20.2381 55.1925 20.6496 55.2439 21.164L57.1472 28.2628Z" fill="white"/>
<path d="M75.9743 20.9071C75.9743 21.7816 75.3056 22.296 73.9167 22.296H71.499V24.6108H73.5566C74.9455 24.6108 75.6142 25.0224 75.6142 25.9997C75.6142 26.9256 74.9455 27.3886 73.5566 27.3886H71.499V29.8063H73.9681C75.357 29.8063 76.0257 30.2178 76.0257 31.1952C76.0257 32.0697 75.357 32.5841 73.9681 32.5841H70.5216C69.75 32.5841 69.2356 32.4298 68.9784 32.1726C68.7212 31.9154 68.5669 31.401 68.5669 30.7322V21.5244C68.5669 20.8557 68.7212 20.3413 68.9784 19.9812C69.2356 19.6211 69.75 19.4668 70.6245 19.4668H73.8652C75.3056 19.5182 75.9743 19.9812 75.9743 20.9071Z" fill="white"/>
<path d="M80.2953 32.4816C79.8838 32.4816 79.5237 32.3787 79.2665 32.1215C79.0093 31.8643 78.855 31.5042 78.855 31.0927C78.855 30.7326 78.9579 30.4754 79.0093 30.2182L82.3529 21.1133C82.7645 19.8272 83.5361 19.21 84.5649 19.21C85.5937 19.21 86.3653 19.8272 86.7254 20.9075L89.9661 30.1668C90.069 30.3211 90.069 30.5268 90.1204 30.6812C90.1204 30.8355 90.2233 30.9384 90.2233 31.0927C90.2233 31.5042 90.069 31.7614 89.8118 32.0186C89.5546 32.2758 89.1945 32.3787 88.783 32.3787C88.0114 32.3787 87.497 31.9672 87.2398 30.9898L84.5649 22.3993H84.462L81.6328 31.1441C81.3756 32.07 80.964 32.4816 80.2953 32.4816Z" fill="white"/>
<path d="M100.357 20.9071C100.357 21.7816 99.6879 22.296 98.299 22.296H95.8813V24.6108H97.9389C99.3278 24.6108 99.9966 25.0224 99.9966 25.9997C99.9966 26.9256 99.3278 27.3886 97.9389 27.3886H95.8813V29.8063H98.3505C99.7394 29.8063 100.408 30.2178 100.408 31.1952C100.408 32.0697 99.7394 32.5841 98.3505 32.5841H94.904C94.1324 32.5841 93.618 32.4298 93.3608 32.1726C93.1035 31.9154 92.9492 31.401 92.9492 30.7322V21.5244C92.9492 20.8557 93.1035 20.3413 93.3608 19.9812C93.618 19.6211 94.1323 19.4668 95.0068 19.4668H98.2476C99.585 19.5182 100.357 19.9812 100.357 20.9071Z" fill="white"/>
<path d="M103.701 23.2223C103.958 22.4507 104.369 21.6791 104.987 21.1647C105.501 20.5474 106.17 20.1359 106.941 19.7758C107.713 19.4157 108.587 19.3643 109.41 19.3643C110.336 19.3643 111.108 19.5186 111.88 19.7758C112.651 20.1359 113.268 20.5474 113.834 21.1647C114.349 21.782 114.76 22.4507 115.12 23.2223C115.378 23.9939 115.532 24.9198 115.532 25.9486C115.532 26.9774 115.378 27.8519 115.12 28.675C114.863 29.4466 114.452 30.1153 113.937 30.7326C113.423 31.3499 112.754 31.7614 111.982 32.0186C111.211 32.3787 110.336 32.4301 109.41 32.4301C108.485 32.4301 107.61 32.2758 106.941 32.0186C106.17 31.6585 105.552 31.247 104.987 30.7326C104.472 30.1153 104.061 29.4466 103.701 28.675C103.443 27.9034 103.289 26.9774 103.289 25.9486C103.289 24.9198 103.443 23.9939 103.701 23.2223ZM107.199 28.7778C107.816 29.4466 108.485 29.8066 109.41 29.8066C110.285 29.8066 111.057 29.4466 111.622 28.7778C112.24 28.1091 112.497 27.1317 112.497 25.9486C112.497 24.7655 112.24 23.7367 111.622 23.0165C111.005 22.3478 110.336 21.9877 109.41 21.9877C108.536 21.9877 107.764 22.3478 107.199 23.0165C106.581 23.6852 106.324 24.6626 106.324 25.9486C106.324 27.1832 106.684 28.1091 107.199 28.7778Z" fill="white"/>
<path d="M119.801 32.4815C118.875 32.4815 118.361 31.8128 118.361 30.4239V21.4219C118.361 20.033 118.875 19.3643 119.801 19.3643C120.727 19.3643 121.241 20.033 121.241 21.4219V24.4054H126.643V21.4219C126.643 20.033 127.157 19.3643 128.083 19.3643C129.009 19.3643 129.523 20.033 129.523 21.4219V30.4239C129.523 31.8128 129.009 32.4815 128.083 32.4815C127.157 32.4815 126.643 31.8128 126.643 30.4239V27.1832H121.241V30.4239C121.241 31.8128 120.83 32.4815 119.801 32.4815Z" fill="white"/>
</svg>
